<?xml version="1.0" encoding="UTF-8" standalone="no"?>
<!DOCTYPE svg PUBLIC "-//W3C//DTD SVG 1.1//EN" "http://www.w3.org/Graphics/SVG/1.1/DTD/svg11.dtd">
<svg width="100%" height="100%" viewBox="0 0 3840 2160" version="1.1" xmlns="http://www.w3.org/2000/svg" xmlns:xlink="http://www.w3.org/1999/xlink" xml:space="preserve" xmlns:serif="http://www.serif.com/" style="fill-rule:evenodd;clip-rule:evenodd;stroke-linejoin:round;stroke-miterlimit:2;">
    <g transform="matrix(1,0,0,1,-90.004969,0)">
        <g transform="matrix(1.864155,0,0,1.864155,313.13915,320.386585)">
            <g id="LOGO">
                <path d="M323.415,802.701C323.184,802.499 322.852,802.449 322.593,802.283C321.642,801.673 321.611,801.768 320.648,801.207C319.09,800.299 314.217,797.824 313.518,797.465C311.614,796.486 298.166,788.563 297.67,788.229C297.457,788.086 289.73,782.978 289.355,782.709C280.665,776.48 280.552,776.653 279.814,776.087C279.371,775.747 275.291,772.617 274.241,771.866C266.84,766.573 266.728,766.716 252.645,754.327C249.179,751.278 249.235,751.25 245.837,748.13C244.337,746.753 238.243,741.156 228.132,729.832C222.689,723.737 219.346,719.162 218.204,717.727C211.582,709.408 206.85,701.98 205.252,699.671C204.66,698.816 191.546,678.981 183.47,660.512C175.905,643.213 174.42,638.518 170.486,625.504C170.149,624.39 167.643,616.102 166.616,611.475C165.317,605.623 160.685,585.718 159.546,569.498C159.202,564.593 159.473,564.166 156.676,562.229C155.875,561.675 149.548,557.294 146.788,555.117C131.245,542.857 123.293,534.611 120.864,532.141C105.799,516.823 105.945,515.559 98.692,506.355C87.848,492.595 77.889,475.459 71.576,464.468C68.263,458.701 68.575,458.313 68.931,457.869C69.957,456.592 71.388,459.283 71.502,459.498C73.781,463.786 73.743,463.801 73.957,464.164C77.974,470.988 77.993,471.015 78.388,471.581C78.826,472.209 80.511,475.077 80.691,475.383C81.276,476.378 85.767,484.02 88.456,487.534C90.042,489.607 98.454,503.923 118.337,523.663C139.828,545.001 152.455,551.711 156.259,554.896C156.398,555.012 157.666,556.073 158.454,555.453C159.422,554.692 157.722,545.813 159.122,526.47C160.193,511.681 161.06,507.789 161.804,501.542C162.03,499.642 163.968,488.831 164.279,487.445C165.491,482.041 165.496,479.849 170.731,461.566C179.108,432.306 188.16,416.718 190.338,411.428C191.134,409.495 192.82,407.242 192.549,405.491C192.482,405.065 191.424,402.817 191.316,402.589C190.407,400.66 189.683,398.568 189.204,397.645C186.405,392.25 179.344,373.265 177.443,366.517C173.803,353.6 173.778,351.848 172.861,347.428C170.506,336.069 171.098,335.982 169.247,324.54C168.023,316.979 165.651,285.956 167.397,282.437C167.625,281.976 167.863,281.498 172.559,278.595C180.752,273.53 180.67,273.384 189.409,269.302C192.258,267.971 194.565,266.57 195.497,267.503C196.207,268.214 195.551,275.25 196.416,289.505C197.494,307.28 199.715,320.854 200.158,323.558C202.06,335.182 202.636,336.272 203.552,340.489C204.03,342.688 206.969,356.212 211.638,367.441C212.467,369.436 212.738,371.393 213.463,371.575C215.42,372.066 214.999,370.944 216.659,368.613C218.585,365.909 219.056,365.429 219.63,364.593C221.193,362.314 221.163,362.3 229.679,351.637C234.53,345.563 234.634,345.667 235.054,345.139C237.748,341.75 237.209,341.435 237.389,337.495C238.041,323.198 239.061,317.885 239.102,317.456C240.228,305.761 241.342,301.792 242.315,295.472C243.794,285.854 244.005,285.909 246.04,276.406C246.788,272.912 249.8,258.846 258.69,233.567C260.496,228.431 260.793,228.443 260.557,227.476C260.281,226.34 258.089,227.012 256.469,227.113C255.807,227.155 255.144,227.183 254.482,227.227C226.157,229.114 187.633,242.025 163.387,255.302C155.072,259.855 155.267,260.177 154.544,260.571C146.444,264.992 130.265,276.654 128.336,278.307C126.875,279.56 119.768,285.211 111.617,292.63C95.961,306.88 83.635,322.744 82.817,323.755C74.322,334.261 65.631,348.875 63.207,353.347C59.719,359.779 58.861,359.58 50.546,378.519C45.265,390.549 44.485,392.652 40.75,403.585C36.824,415.079 32.937,433.508 31.625,442.516C28.947,460.913 27.593,474.761 29.201,496.524C29.674,502.939 31.161,528.319 40.153,553.618C43.069,561.823 43.134,561.798 43.321,562.531C44.031,565.316 41.924,564.441 41.741,564.271C41.739,564.269 40.59,561.819 40.209,560.67C40.05,560.19 38.996,557.007 38.094,554.707C34.846,546.426 29.641,526.6 27.528,516.494C25.017,504.479 24.957,504.501 24.777,503.449C17.396,460.264 20.013,438.444 21.258,421.483C22.035,410.902 25.079,394.502 25.1,394.405C28.374,379.406 31.319,368.696 35.401,357.463C36.331,354.903 41.238,341.399 49.141,326.316C54.714,315.682 60.272,305.128 73.276,288.335C91.617,264.65 104.31,254.833 109.297,250.28C120.301,240.232 137.025,229.153 141.433,226.399C150.187,220.932 150.173,220.927 159.306,216.139C194.142,197.878 219.753,193.433 229.454,191.3C241.237,188.71 262.472,185.863 277.499,185.839C280.871,185.834 281.425,186.217 283.092,183.287C290.968,169.44 305.432,150.007 314.578,139.569C314.858,139.249 328.361,123.649 342.24,112.184C351.305,104.697 351.483,104.934 352.204,104.212C353.032,103.383 352.496,102.123 352.25,101.991C352.188,101.958 352.172,102.049 351.384,101.816C351.083,101.727 350.765,101.702 350.459,101.629C347.073,100.82 343.068,99.095 333.446,96.707C323.281,94.185 323.31,94.119 322.421,93.927C306.877,90.581 290.469,88.969 289.465,88.907C271.761,87.816 270.11,87.441 256.478,88.112C236.912,89.074 236.969,89.634 231.465,90.193C217.797,91.582 195.393,96.431 182.588,100.778C168.741,105.479 164.584,107.243 164.429,107.297C162.517,107.965 142.11,116.113 130.29,123.136C120.571,128.91 119.407,128.871 105.583,138.619C104.368,139.477 96.471,145.045 90.687,149.745C81.977,156.823 77.498,161.329 76.422,162.411C71.652,167.211 71.501,167.037 66.74,171.85C65.513,173.09 65.633,173.175 64.428,174.436C62.531,176.421 59.902,177.608 59.683,177.429C59.454,177.241 59.616,176.812 59.739,176.543C59.827,176.35 59.894,176.396 61.331,174.42C62.322,173.058 72.152,163.313 72.749,162.726C87.669,148.055 97.99,140.741 100.6,138.626C104.268,135.654 119.86,124.773 127.474,120.457C138.726,114.078 140.712,112.794 153.647,106.831C159.399,104.18 159.341,104.069 171.46,99.399C182.456,95.161 188.554,93.747 190.383,93.132C203.57,88.695 227.895,84.667 232.465,84.208C253.306,82.117 265.281,80.708 286.51,82.372C316.729,84.741 330.247,89.092 335.541,90.326C342.054,91.843 359.388,97.247 359.54,97.279C361.478,97.685 363.167,95.726 373.42,89.373C388.238,80.192 395.348,77.119 399.691,74.894C424.695,62.084 455.331,55.417 456.444,55.214C465.703,53.524 465.656,53.384 466.464,53.268C472.01,52.469 471.983,52.333 472.465,52.266C491.25,49.665 502.873,49.746 504.504,49.695C534.867,48.75 560.352,54.803 560.391,54.814C560.535,54.853 560.639,54.989 560.783,55.028C560.852,55.047 564.675,55.648 567.51,56.482C568.347,56.728 568.268,56.863 568.612,57.466C568.727,57.668 569.057,57.793 569.03,58.023C568.909,59.056 564.907,58.19 564.558,58.114C556.586,56.389 556.632,56.208 548.563,55.015C546.886,54.767 536.864,53.286 527.483,52.891C508.871,52.108 508.53,52.357 492.512,53.638C481.643,54.507 474.74,56.05 474.432,56.099C428.509,63.425 394.048,84.082 391.447,85.401C387.146,87.583 374.072,95.945 372.775,96.878C370.105,98.801 370.048,98.712 369.82,98.884C369.115,99.415 369.342,100.891 369.758,101.128C369.761,101.13 373.824,102.584 374.35,102.83C382.361,106.585 405.327,116.216 426.715,131.19C439.513,140.151 450.543,148.283 467.817,165.191C479.132,176.266 481.547,178.916 491.701,191.343C494.872,195.225 494.726,195.311 497.866,199.217C498.993,200.619 498.863,200.696 499.977,202.124C501.961,204.668 513.065,200.921 549.534,208.333C553.594,209.159 553.511,209.429 557.544,210.303C562.5,211.377 568.072,213.226 569.476,213.59C576.261,215.354 607.679,225.866 638.715,247.169C649.606,254.645 654.495,258.968 655.872,260.051C663.44,266.004 663.38,266.05 670.417,272.592C673.249,275.225 672.048,276.587 670.811,282.559C670.579,283.681 668.649,293.004 667.815,296.565C667.375,298.441 665.975,304.909 665.346,305.314C664.227,306.035 662.751,304.282 661.193,302.811C656.823,298.682 656.769,298.773 652.277,294.751C636.532,280.655 613.621,267.136 608.462,264.57C603.819,262.261 589.621,252.99 561.444,244.709C547.6,240.64 529.268,237.683 524.487,237.204C524.279,237.183 521.402,236.895 522.902,239.275C524.46,241.747 524.47,241.716 525.86,244.312C529.363,250.856 529.033,251.012 530.819,254.34C531.7,255.98 532.96,258.33 540.371,275.561C542.686,280.943 545.733,289.894 546.348,291.554C547.139,293.689 547.361,295.893 548.395,297.578C549.151,298.811 561.246,306.638 570.555,315.442C581.894,326.164 590.753,333.425 609.315,357.634C616.578,367.107 623.86,378.673 624.378,379.569C627.691,385.303 627.747,385.267 628.031,385.768C631.672,392.197 631.841,392.09 635.181,398.665C636.608,401.474 637.026,403.414 638.438,403.261C639.507,403.145 639.272,402.76 639.941,401.936C644.89,395.844 644.932,395.893 649.654,389.612C650.095,389.026 653.882,383.989 655.017,382.192C661.429,372.039 661.501,372.1 662.057,371.217C673.793,352.598 680.644,335.902 681.961,332.693C687.27,319.754 688.211,315.932 690.42,309.474C691.957,304.98 691.762,304.534 693.387,299.466C693.725,298.414 696.713,286.391 697.637,280.523C697.88,278.978 697.87,278.992 698.13,277.439C700.808,261.488 700.902,255.764 701.122,253.459C701.836,245.959 701.63,245.958 701.989,236.515C702.533,222.179 700.598,194.321 695.302,172.549C689.715,149.578 681.497,131.734 680.893,130.328C677.002,121.257 676.824,121.356 672.341,112.58C667.184,102.483 663.554,97.076 660.66,92.399C655.973,84.823 654.289,82.818 653.892,82.233C646.598,71.467 643.505,67.595 630.837,54.179C618.197,40.792 607.468,33.154 604.806,31.122C599.994,27.45 595.051,24.406 594.736,24.191C591.119,21.708 579.705,15.286 578.403,14.629C577.565,14.206 577.378,13.668 577.295,13.567C577.205,13.458 576.941,13.429 576.973,13.29C577.215,12.227 578.354,12.251 578.502,12.254C578.889,12.262 580.427,13.162 580.587,13.256C582.594,14.431 591.724,19.169 600.703,25.164C617.291,36.241 630.061,45.446 646.69,61.3C648.778,63.291 660.655,74.614 671.354,87.616C677.241,94.77 677.037,94.911 683.873,104.237C687.244,108.837 687.043,108.948 690.208,113.685C691.939,116.275 699.433,128.926 701.582,133.458C703.339,137.165 703.904,137.758 704.65,139.428C708.844,148.81 715.221,159.808 723.106,188.609C724.648,194.241 724.376,194.565 725.161,197.587C726.047,201.001 726.049,200.978 726.72,204.458C729.865,220.783 730.074,226.225 730.556,230.494C731.789,241.431 732.107,259.278 731.855,264.518C731.131,279.602 730.024,285.862 729.958,286.545C729.825,287.91 728.977,296.656 727.671,303.533C724.072,322.485 720.692,334.298 717.421,343.475C709.525,365.628 704.841,372.699 702.246,378.384C696.54,390.887 682.421,411.881 676.566,419.551C669.036,429.417 664.115,434.709 660.143,439.184C654.98,445 653.213,445.442 654.194,448.603C654.718,450.288 654.825,450.244 656.45,456.513C668.465,502.843 664.32,535.512 663.843,541.533C663.186,549.809 662.185,550.402 663.387,550.697C665.114,551.12 665.027,550.526 666.569,549.621C667.201,549.25 685.495,539.003 696.598,530.639C702.467,526.217 702.497,526.277 704.548,524.557C712.488,517.899 722.887,510.349 737.512,494.511C747.86,483.305 749.411,480.843 751.418,478.435C760.17,467.933 770.834,452.114 779.097,437.274C814.431,373.814 813.373,313.524 813.649,304.521C813.786,300.015 813.606,299.817 814.175,299.047C814.607,298.464 814.73,298.356 815.331,298.768C816.654,299.675 815.401,321.294 815.309,322.492C814.448,333.772 814.107,336.355 813.949,337.555C811.615,355.224 810.258,367.601 804.383,388.468C803.409,391.929 797.882,411.56 788.694,430.592C785.963,436.248 785.912,436.197 782.94,441.728C781.992,443.494 776.313,454.066 770.143,463.265C767.438,467.297 762.147,475.385 754.595,484.575C753.478,485.934 746.278,494.696 740.08,501.09C725.79,515.834 717.245,522.609 716.399,523.387C711.287,528.087 695.029,540.255 687.74,544.878C671.745,555.023 664.869,558.257 663.682,558.879C660.18,560.715 661.189,562.172 659.705,568.548C657.834,576.585 657.856,576.572 655.729,584.562C654.137,590.54 650.466,600.897 649.45,603.481C639.528,628.724 633.939,637.024 631.617,641.571C631.129,642.527 624.471,653.4 622.455,656.468C620.698,659.141 617.415,663.121 616.598,664.576C616.175,665.328 616.162,665.306 610.16,673.233C609.487,674.122 609.418,674.045 608.713,674.906C608.706,674.915 608.466,675.432 608.015,676.018C607.213,677.06 607.331,677.125 607.258,677.211C607.16,677.326 606.186,678.47 605.399,677.567C604.738,676.807 605.849,675.33 612.864,665.759C617.551,659.364 617.506,659.34 617.918,658.788C621.762,653.639 624.626,648.626 626.928,644.729C641.931,619.34 645.791,602.449 647.916,596.65C650.176,590.482 654.175,572.352 655.416,565.493C655.447,565.325 655.743,563.691 654.494,563.565C654.064,563.521 652.603,564.314 652.447,564.398C649.332,566.087 647.509,566.694 645.574,567.651C637.332,571.729 613.082,580.941 590.438,586.228C586.286,587.197 570.833,590.311 566.538,590.788C561.064,591.396 561.131,591.866 551.511,592.659C540.298,593.582 535.868,593.707 534.505,593.745C517.281,594.23 517.15,593.38 515.345,594.219C513.843,594.916 499.81,614.305 474.454,633.442C467.705,638.535 467.756,638.588 467.152,639.006C446.757,653.121 433.899,659.162 428.282,662.07C419.99,666.363 405.111,672.027 404.419,672.193C402.33,672.694 400.514,670.972 390.584,662.4C386.843,659.171 386.841,659.201 383.152,655.887C380.279,653.306 380.051,653.514 379.958,653.193C379.885,652.943 380.089,652.684 380.097,652.423C380.102,652.256 379.912,652.078 379.994,651.933C380.103,651.74 380.365,651.686 380.566,651.594C381.024,651.385 381.047,651.468 386.415,649.28C396.608,645.126 396.474,644.849 405.559,640.618C408.442,639.275 421.033,632.547 426.339,629.241C451.906,613.312 460.927,604.259 470.866,594.874C473.14,592.727 474.054,592.85 473.374,591.571C472.911,590.698 472.637,591.084 469.472,590.708C461.779,589.793 452.018,587.555 451.506,587.464C441.767,585.738 432.033,582.486 430.504,582.57C428.733,582.666 417.139,588.549 391.446,596.328C389.553,596.901 377.548,600.535 367.476,602.372C333.845,608.505 321.767,607.676 320.371,608.308C320.185,608.393 319.693,609.208 319.7,609.468C319.707,609.773 321.568,612.841 322.023,613.747C324.04,617.76 335.506,638.063 351.187,655.769C359.077,664.679 367.194,673.477 378.682,683.273C397.236,699.095 410.765,706.69 416.663,710.212C435.488,721.452 451.774,727.593 456.513,729.467C464.818,732.752 475.406,735.898 476.574,736.281C480.033,737.414 480.067,737.25 483.576,738.24C501.014,743.16 510.777,744.269 517.519,745.378C535.214,748.29 560.529,748.476 576.461,747.035C584.974,746.265 584.978,746.375 593.423,745.021C622.792,740.313 636.026,734.299 642.437,732.297C652.285,729.222 677.281,718.266 695.418,706.375C709.894,696.885 721.033,687.198 722.663,685.726C725.979,682.732 726.133,682.742 726.521,682.767C728.152,682.872 727.393,684.312 727.324,684.444C726.677,685.671 710.887,698.67 706.272,702.198C686.12,717.605 685.843,717.216 684.348,718.286C677.475,723.199 669.518,727.559 668.384,728.317C665.195,730.448 650.337,738.17 648.751,738.994C631.109,748.162 606.246,756.55 605.574,756.746C605.162,756.865 602.949,757.508 600.436,758.282C596.483,759.498 596.454,759.327 592.484,760.443C575.518,765.21 559.69,767.139 559.449,767.178C547.745,769.047 536.605,769.68 532.508,769.788C514.193,770.276 493.409,770.084 459.454,762.694C458.577,762.504 441.525,757.765 439.623,757.143C432.708,754.882 421.711,750.517 420.675,750.081C405.379,743.644 397.595,739.29 395.662,738.209C392.26,736.306 370.737,724.884 351.4,708.621C344.957,703.202 344.876,703.32 341.194,699.831C333.614,692.647 333.555,692.722 332.9,692.094C331.362,690.616 322.736,681.76 322.516,681.485C321.872,680.677 314.837,673.267 310.88,668.207C303.78,659.127 303.87,659.082 297.186,649.715C295.329,647.114 295.44,647.061 293.669,644.396C290.515,639.65 284.978,629.924 284.251,628.649C279.386,620.105 274.312,608.593 273.611,607.427C272.731,605.966 272.419,606.146 263.456,604.765C255.846,603.593 255.884,603.439 251.468,602.692C242.782,601.223 240.619,600.205 236.562,599.25C219.308,595.189 186.811,582.094 169.454,570.578C168.325,569.83 168.166,569.195 167.185,570.143C167.038,570.285 166.784,570.354 166.724,570.55C166.575,571.031 168.451,587.906 171.889,604.415C174.724,618.036 179.198,631.63 180.962,636.334C186.633,651.458 186.586,651.47 187.468,653.513C187.809,654.303 191.215,662.194 191.781,663.367C198.532,677.361 201.018,681.24 201.66,682.407C206.268,690.784 208.543,693.971 209.418,695.548C210.377,697.277 220.519,711.826 221.693,713.358C233.191,728.361 235.582,730.44 236.007,730.944C247.021,743.974 264.342,759.655 268.756,763.171C278.375,770.834 281.877,774.158 299.214,785.923C302.295,788.014 303.53,788.615 305.326,789.77C309.302,792.327 309.323,792.25 313.426,794.614C317.005,796.677 317.061,796.55 317.369,796.732C321.44,799.143 321.592,798.842 325.675,801.209C327.278,802.138 326.938,802.233 327.405,802.714C325.483,802.666 325.339,802.617 323.418,802.701C323.358,802.637 322.992,802.286 323.415,802.701ZM323.418,802.701C323.429,802.712 323.43,802.715 323.415,802.701C323.416,802.701 323.417,802.701 323.418,802.701ZM322.583,140.567C319.202,144.664 319.089,144.547 315.716,148.672C309.344,156.468 306.088,160.977 304.794,162.72C295.991,174.573 292.412,181.411 291.097,183.284C288.626,186.802 292.999,185.792 295.482,185.959C309.132,186.878 309.162,186.48 318.428,187.936C320.833,188.313 330.278,189.357 337.39,190.975C344.648,192.627 359.333,195.358 384.327,204.947C392.847,208.216 404.177,213.386 405.672,214.176C406.207,214.46 409.679,215.986 413.656,218.197C418.295,220.774 419.278,219.751 419.556,219.652C420.438,219.339 420.42,219.308 430.549,215.644C434.502,214.214 450.023,209.435 455.475,208.365C467.426,206.021 467.377,205.783 479.47,204.265C481.87,203.964 488.303,203.627 488.506,203.625C491.045,203.6 492.599,203.786 491.484,201.51C491.286,201.107 490.999,201.346 487.903,197.182C487.322,196.4 487.218,196.26 480.146,187.788C478.696,186.052 458.935,164.861 448.453,156.557C447.104,155.488 442.766,151.548 437.433,147.584C433.415,144.598 433.559,144.431 429.436,141.591C428.778,141.138 428.867,141.049 421.296,135.805C411.847,129.261 402.029,123.808 400.303,122.849C389.156,116.658 389.128,116.732 377.477,111.551C375.051,110.473 363.33,105.571 361.501,105.619C360.818,105.637 360.609,105.643 354.342,110.28C342.751,118.858 327.148,134.875 322.583,140.567ZM180.25,454.422C175.837,468.39 173.813,475.01 169.29,500.464C167.48,510.648 166.614,524.408 166.482,526.499C164.93,551.14 165.886,560.236 165.946,560.402C166.117,560.878 165.604,561.568 176.251,567.93C182.262,571.521 199.223,580.019 211.467,584.585C221.505,588.328 239.411,593.972 252.546,596.261C258.551,597.308 258.547,597.204 264.549,598.18C266.364,598.475 268.593,599.087 269.189,598.257C269.788,597.424 269.194,597.362 266.594,590.467C264.206,584.131 260.165,574.82 254.008,547.614C251.642,537.155 251.955,537.115 250.407,526.513C247.556,506.974 248.307,486.02 248.433,482.498C248.602,477.77 248.861,477.258 246.143,474.925C244.552,473.559 238.596,468.446 227.426,456.569C222.466,451.295 217.819,444.932 217.045,443.873C214.967,441.028 214.873,441.128 212.824,438.278C211.947,437.058 200.709,420.014 198.676,415.376C198.343,414.617 198.349,414.493 197.503,414.452C196.373,414.398 196.416,414.683 195.97,415.732C195.694,416.382 195.659,416.983 194.776,418.632C189.327,428.817 182.514,447.808 182.314,448.438C182.161,448.921 182.095,449.13 180.25,454.422ZM650.319,459.549C650.181,459.06 648.643,453.604 648.585,453.44C648.001,451.766 647.338,452.757 646.168,454.094C644.514,455.985 644.328,455.777 642.52,457.521C637.406,462.456 624.56,473.519 621.21,476.134C618.059,478.594 617.968,478.437 614.795,480.896C608.134,486.058 606.029,487.25 597.69,492.795C581.862,503.321 561.763,512.112 558.514,513.534C555.15,515.005 554.806,515.036 553.867,518.59C552.106,525.248 548.153,537.495 545.266,544.404C541.857,552.56 537.573,560.334 536.831,561.681C531.867,570.69 528.927,575.659 523.542,583.529C522.096,585.644 521.178,585.735 522.151,586.841C522.855,587.64 523.539,587.019 526.507,586.935C537.524,586.623 537.501,586.408 548.514,585.732C565.747,584.673 579.282,581.331 583.516,580.591C586.362,580.094 601.947,576.081 603.545,575.67C619.229,571.632 643.784,561.634 648.341,559.182C654.869,555.669 654.891,555.735 655.455,555.424C657.41,554.347 656.975,552.392 657.497,547.5C660.682,517.627 657.034,484.157 650.319,459.549ZM622.787,390.329C621.35,387.881 612.519,372.845 603.126,360.787C596.234,351.939 594.58,350.126 593.779,349.249C590.812,345.997 587.689,342.139 586.3,340.691C578.143,332.185 570.89,324.792 555.785,312.12C553.383,310.105 553.61,309.856 553.36,309.75C553.155,309.663 552.027,309.712 551.961,309.779C551.196,310.566 552.997,313.051 555.116,321.587C557.129,329.697 557.688,332.475 557.881,333.429C559.196,339.961 560.504,345.228 562.406,360.511C564.099,374.109 564.225,379.066 564.364,380.514C564.577,382.746 565.818,395.747 565.731,408.503C565.651,420.182 562.625,454.488 562.273,458.48C561.805,463.791 561.149,465.399 562.473,465.598C563.604,465.767 564.163,464.924 567.728,462.884C573.352,459.664 573.288,459.588 583.254,453.127C594.833,445.619 606.641,435.262 608.564,433.575C620.009,423.536 620.011,423.557 630.703,412.7C633.071,410.296 633.192,409.888 631.865,407.308C627.829,399.463 628.114,399.326 622.787,390.329ZM244.8,333.358C246.349,333.449 246.346,333.51 246.468,333.456C246.516,333.435 246.476,333.173 248.204,331.218C253.564,325.158 264.634,315.371 266.121,314.056C274.176,306.934 274.432,306.722 275.175,306.108C283.128,299.528 283.053,299.463 293.589,291.631C296.369,289.564 296.402,289.623 304.335,284.248C307.71,281.961 326.026,269.825 346.427,259.351C353.813,255.558 353.858,255.702 361.312,252.085C371.786,247.003 371.952,247.388 372.857,246.935C373.964,246.382 374.656,246.263 373.82,245.329C373.041,244.459 372.892,244.695 371.614,244.245C371.081,244.057 363.15,240.85 362.463,240.597C351.692,236.634 349.379,236.31 343.477,234.58C335.733,232.309 335.073,232.541 331.469,231.612C329.967,231.225 324.211,229.742 312.428,227.957C306.322,227.032 289.088,226.036 285.493,225.968C270.98,225.695 270.621,225.886 269.491,226.488C267.559,227.519 260.039,250.064 259.462,252.491C258.094,258.25 254.81,266.943 251.721,283.546C250.003,292.776 249.889,292.738 249.766,293.543C248.697,300.549 248.569,300.507 247.667,307.524C245.539,324.064 245.8,324.077 245.609,325.513C244.782,331.713 244.824,331.703 244.8,333.358ZM334.485,600.289C351.505,598.634 351.448,598.266 365.543,595.734C368.66,595.175 380.157,592.519 382.578,591.768C390.093,589.439 391.652,590.057 412.681,581.976C417.382,580.169 418.823,580.783 418.144,578.827C417.958,578.291 414.63,578.529 397.343,571.941C390.387,569.29 390.412,569.271 383.477,566.556C376.72,563.91 376.006,563.094 372.434,561.657C368.196,559.951 360.679,556.17 360.663,556.162C356.026,553.916 344.946,547.801 344.466,547.562C341.237,545.956 341.428,545.653 338.258,543.951C331.748,540.456 331.898,540.225 325.56,536.401C321.812,534.139 319.385,532.136 319.171,531.99C317.739,531.016 304.409,521.952 301.41,519.625C298.006,516.982 297.937,517.097 294.554,514.427C292.782,513.029 292.878,512.092 291.622,512.844C290.447,513.547 291.126,513.91 291.661,518.483C291.822,519.855 292.769,527.945 294.125,535.568C297.427,554.137 300.91,562.964 302.352,568.542C303.577,573.278 311.029,592.558 312.075,594.698C314.291,599.231 314.05,601.135 317.492,601.034C325.999,600.785 325.995,600.936 334.485,600.289ZM272.623,317.629C270.638,319.452 267.242,322.191 263.713,325.711C244.255,345.122 244.694,345.589 244.456,346.487C243.935,348.452 243.562,365.865 244.093,374.515C244.558,382.073 244.293,384.475 245.768,400.472C247.081,414.718 247.225,415.63 248.748,425.459C249.376,429.512 247.396,428.972 246.414,431.461C245.792,433.036 242.924,440.305 244.314,452.521C244.832,457.074 246.197,459.111 247.571,464.463C247.781,465.283 247.691,465.377 248.411,465.792C250.425,466.95 249.2,464.727 250.54,453.504C251.77,443.205 253.63,434.267 253.975,432.608C254.915,428.089 254.644,428.053 255.815,423.582C257.636,416.632 259.922,404.818 268.826,381.634C277.184,359.872 285.434,346.191 288.393,340.442C290.207,336.917 297.781,324.776 302.783,317.697C310.723,306.46 312.425,304.007 323.029,292.074C327.208,287.372 329.603,284.326 337.106,277.105C337.883,276.357 342.716,271.706 347.438,268.439C348.508,267.699 348.742,267.714 348.691,266.401C348.606,264.23 345.178,267.504 338.415,271.34C337.197,272.03 337.267,272.138 323.397,280.326C321.53,281.428 317.178,284.34 313.476,286.461C312.783,286.858 312.874,286.976 305.231,292.095C303.448,293.289 291.413,301.982 286.746,305.811C285.054,307.199 277.873,312.732 272.623,317.629ZM370.634,553.189C374.52,554.961 374.466,555.036 378.442,556.642C380.157,557.335 381.228,558.147 391.609,562.221C397.939,564.705 398.002,564.498 404.329,566.963C407.521,568.206 413.657,570.793 427.568,574.211C431.446,575.164 432.281,573.82 438.692,570.904C440.907,569.896 450.439,565.559 465.334,556.219C477.206,548.774 477.172,548.743 488.394,540.356C493.298,536.691 495.095,536.513 493.807,535.209C492.885,534.275 492.713,535.042 490.522,535.634C484.002,537.397 463.304,539.958 456.49,540.298C455.201,540.362 427.76,542.832 398.552,539.051C371.121,535.5 353.246,529.991 349.409,528.808C346.464,527.9 337.015,525.279 326.41,520.706C324.502,519.884 321.196,519.015 310.372,513.774C306.595,511.945 305.44,511.513 299.312,507.872C299.041,507.711 296.293,506.078 295.564,506.643C294.765,507.264 295.555,508.249 295.641,508.356C296.001,508.804 296.177,508.56 301.716,512.184C302.5,512.697 304.201,513.59 307.729,516.198C312.352,519.614 331.96,532.472 336.694,535.15C342.317,538.331 344.386,540.137 363.361,549.786C363.537,549.875 370.527,553.141 370.634,553.189ZM548.725,324.447C548.294,322.753 545.159,310.442 542.529,303.488C541.781,301.509 541.801,301.308 532.323,294.764C532.237,294.704 518.017,285.675 517.547,285.423C510.147,281.46 503.867,277.461 494.6,273.269C484.082,268.511 484.457,267.783 483.517,267.438C482.255,266.975 481.586,266.152 481.505,267.503C481.416,269.005 481.913,268.82 483.061,269.767C488.682,274.406 494.426,281.684 496.272,283.706C500.663,288.517 501.254,289.874 504.384,293.593C511.698,302.283 524.74,322.973 526.657,326.412C536.149,343.44 541.566,356.712 542.676,359.43C545.327,365.926 546.607,370.014 546.755,370.404C548.277,374.423 548.06,374.475 549.459,378.515C553.107,389.045 553.255,392.012 554.465,396.51C554.697,397.372 555.27,399.502 556.544,407.484C556.747,408.752 556.471,408.859 557.279,409.856C559.218,412.249 558.773,406.813 558.749,406.522C558.3,401.031 558.5,401.036 558.185,395.521C557.727,387.51 557.029,359.294 548.725,324.447ZM463.707,308.308C445.294,288.878 436.179,282.607 430.306,277.745C418.126,267.66 395.047,254.661 393.531,254.381C391.708,254.045 391.713,254.774 385.659,261.638C381.301,266.58 369.2,282.512 368.057,284.187C366.607,286.315 355.148,301.273 342.358,322.414C327.676,346.68 315.433,372.931 308.259,393.417C300.853,414.561 296.851,428.717 293.185,452.454C292.816,454.841 290.435,470.257 290.129,482.486C290.047,485.757 289.321,486.775 292.489,487.548C297.449,488.757 321.493,495.523 332.538,497.271C341.834,498.743 342.472,499.389 354.45,500.891C386.299,504.885 398.686,504.361 400.503,504.414C425.125,505.125 454.464,501.117 457.519,500.609C470.759,498.409 482.108,497.122 509.571,488.725C512.096,487.953 526.856,482.442 527.39,482.223C542.279,476.121 542.131,475.832 543.435,475.333C547.121,473.921 546.52,472.906 545.721,469.447C545.258,467.444 542.401,455.069 539.169,444.602C537.299,438.547 537.136,438.616 535.807,434.402C533.057,425.679 533.092,425.67 524.613,404.453C523.5,401.665 518.219,390.657 518.212,390.644C516.119,386.781 516.457,386.619 510.178,374.667C497.095,349.765 485.565,334.677 475.791,322.273C470.068,315.01 469.909,315.171 463.707,308.308ZM518.59,245.451C518.224,244.805 517.568,243.453 516.851,242.3C513.627,237.117 513.987,236.082 510.479,235.792C485.014,233.686 467.559,237.928 464.481,238.403C461.694,238.834 461.774,238.093 456.367,234.727C455.257,234.036 447.003,229.156 440.439,227.761C432.161,226.003 432.229,225.756 431.5,225.665C430.23,225.506 429.648,225.209 429.67,226.499C429.682,227.226 429.753,227.251 430.407,227.588C430.909,227.846 436.338,231.021 439.629,233.314C441.322,234.493 453.324,242.853 460.398,248.626C467.94,254.782 468.391,254.103 477.426,257.707C502.072,267.537 529.568,284.077 534.634,288.301C536.146,289.562 536.315,289.562 536.495,289.562C536.743,289.562 537.586,288.785 537.614,288.515C537.63,288.36 535.083,280.885 532.42,274.534C529.26,266.996 527.204,261.031 518.59,245.451ZM465.416,564.37C465.08,564.583 460.248,567.35 457.297,569.139C455.012,570.523 454.876,570.26 452.629,571.715C450.908,572.83 445.751,575.527 445.551,575.608C445.33,575.699 442.889,576.697 442.809,576.804C442.723,576.919 442.67,578.161 442.743,578.27C443.006,578.66 443.17,578.345 448.454,579.675C456.564,581.718 478.679,585.088 479.472,585.019C481.555,584.837 482.593,582.942 485.698,579.684C487.337,577.964 492.021,572.118 493.825,569.754C503.318,557.314 505.54,553.486 508.227,549.327C511.649,544.031 513.571,539.397 515.486,538.47C517.449,537.52 521.527,536.776 528.641,532.757C534.688,529.341 534.807,529.524 540.262,525.207C545.253,521.256 545.631,521.415 545.644,520.507C545.646,520.394 545.197,519.114 543.568,519.804C541.726,520.584 541.856,521.076 533.387,524.178C526.544,526.683 526.565,526.697 519.634,528.904C509.846,532.02 510.041,532.538 507.599,534.62C505.508,536.402 503.593,537.311 497.797,541.892C496.855,542.636 494.068,544.839 485.74,550.832C473.077,559.943 472.976,559.793 470.771,560.985C470.325,561.226 470.388,561.311 465.416,564.37ZM237.092,355.673C235.594,355.474 235.601,355.423 235.475,355.458C235.199,355.533 235.256,355.604 234.156,357.173C233.562,358.02 223.879,370.287 218.412,378.436C216.594,381.146 217.439,381.413 218.628,384.449C219.11,385.68 220.866,390.164 225.838,399.316C230.875,408.588 230.851,408.582 236.619,417.418C238.946,420.983 239.793,424.212 241.189,423.132C241.939,422.552 241.047,419.685 240.808,418.471C239.066,409.627 237.509,385.172 237.254,376.509C236.946,366.079 236.811,366.091 237.092,355.673Z" style="fill-opacity:1;"/>
            </g>
        </g>
        <g transform="matrix(1,0,0,1,-14,-83.230929)">
            <g transform="matrix(43.49704,0,0,43.49704,-104722.650934,-41182.663927)">
                <g transform="matrix(12,0,0,12,2493.308727,975.78359)">
                </g>
                <text x="2451.465px" y="975.784px" style="font-family:'Didot';font-size:12px;">C<tspan x="2460.249px 2463.585px 2470.689px 2474.025px 2480.733px 2484.069px 2489.973px " y="975.784px 975.784px 975.784px 975.784px 975.784px 975.784px 975.784px ">.S.T.F.</tspan></text>
            </g>
            <g transform="matrix(0.989732,0,0,0.384615,20.01255,797.846154)">
                <rect x="1949" y="1303" width="1753" height="26" style="fill-opacity:1;"/>
            </g>
            <g transform="matrix(0.989648,0,0,1,7.205448,-45.701803)">
                <text x="1951px" y="1490px" style="font-family:'Didot';font-size:144.244px;">C</text>
                <text x="2055.144px" y="1490px" style="font-family:'Didot';font-size:87.227px;">HURCH</text>
                <text x="2429.584px" y="1490px" style="font-family:'Didot';font-size:87.227px;">OF</text>
                <text x="2600.437px" y="1490px" style="font-family:'Didot';font-size:144.244px;">S</text>
                <text x="2696.647px" y="1490px" style="font-family:'Didot';font-size:87.227px;">ERENE</text>
                <text x="3033.943px" y="1490px" style="font-family:'Didot';font-size:144.244px;"><tspan x="3033.943px " y="1490px ">T</tspan></text>
                <text x="3132.606px" y="1490px" style="font-family:'Didot';font-size:87.227px;">RUE</text>
                <text x="3363.296px" y="1490px" style="font-family:'Didot';font-size:144.244px;">F</text>
                <text x="3459.507px" y="1490px" style="font-family:'Didot';font-size:87.227px;">OOLS</text>
            </g>
        </g>
    </g>
</svg>
